<svg width="137" height="32" viewBox="0 0 137 32" fill="none" xmlns="http://www.w3.org/2000/svg">
<path fill-rule="evenodd" clip-rule="evenodd" d="M24.8874 0C27.6364 0 29.8648 2.22849 29.8648 4.97747V25.717C29.8648 28.4659 27.6364 30.6944 24.8874 30.6944H4.97747C2.22849 30.6944 0 28.4659 0 25.717V4.97747C0 2.22849 2.22849 0 4.97747 0H24.8874ZM15.3306 4.71092L14.9324 4.42953L14.5342 4.71092L4.97747 11.4675H7.36227V23.6957H22.5026V11.4675H24.8874L15.3306 4.71092Z" fill="white"/>
<path d="M44.2596 24.23C44.6976 24.23 45.1207 24.1951 45.5288 24.1254C45.937 24.0558 46.3103 23.9612 46.6488 23.8417L46.5592 21.5421C46.3203 21.6616 46.0515 21.7512 45.7528 21.8109C45.4542 21.8706 45.1754 21.9005 44.9166 21.9005C44.2198 21.9005 43.7121 21.7163 43.3935 21.348C43.0749 20.9797 42.9157 20.3674 42.9157 19.5113V12.1347H46.6786V9.83511H42.9157V5.77349H40.1382V9.83511H37.4205V12.1347H40.1382V19.81C40.1382 21.2833 40.4916 22.3883 41.1984 23.125C41.9052 23.8616 42.9256 24.23 44.2596 24.23ZM54.5231 24.3793C55.5983 24.3793 56.6037 24.1951 57.5395 23.8268C58.4752 23.4585 59.2866 22.9408 59.9735 22.2738C60.6604 21.6068 61.1979 20.8154 61.5862 19.8996C61.9744 18.9837 62.1685 17.9783 62.1685 16.8832C62.1685 15.7882 61.9744 14.7877 61.5862 13.8818C61.1979 12.9759 60.6604 12.1944 59.9735 11.5374C59.2866 10.8804 58.4752 10.3677 57.5395 9.99937C56.6037 9.63103 55.5983 9.44687 54.5231 9.44687C53.448 9.44687 52.4426 9.63103 51.5068 9.99937C50.571 10.3677 49.7647 10.8804 49.0877 11.5374C48.4108 12.1944 47.8782 12.9759 47.49 13.8818C47.1017 14.7877 46.9076 15.7882 46.9076 16.8832C46.9076 17.9783 47.1017 18.9837 47.49 19.8996C47.8782 20.8154 48.4108 21.6068 49.0877 22.2738C49.7647 22.9408 50.571 23.4585 51.5068 23.8268C52.4426 24.1951 53.448 24.3793 54.5231 24.3793ZM54.5231 22.02C53.7666 22.02 53.0946 21.8806 52.5073 21.6019C51.9199 21.3231 51.4271 20.9448 51.0289 20.467C50.6307 19.9892 50.3271 19.4416 50.1181 18.8244C49.909 18.2072 49.8045 17.5601 49.8045 16.8832C49.8045 16.2063 49.909 15.5592 50.1181 14.942C50.3271 14.3248 50.6307 13.7822 51.0289 13.3144C51.4271 12.8465 51.9199 12.4732 52.5073 12.1944C53.0946 11.9157 53.7666 11.7763 54.5231 11.7763C55.2797 11.7763 55.9517 11.9157 56.539 12.1944C57.1264 12.4732 57.6191 12.8465 58.0173 13.3144C58.4155 13.7822 58.7191 14.3248 58.9282 14.942C59.1373 15.5592 59.2418 16.2063 59.2418 16.8832C59.2418 17.5601 59.1373 18.2072 58.9282 18.8244C58.7191 19.4416 58.4155 19.9892 58.0173 20.467C57.6191 20.9448 57.1264 21.3231 56.539 21.6019C55.9517 21.8806 55.2797 22.02 54.5231 22.02ZM67.1161 31.1586V21.8706H67.2057C67.7234 22.667 68.4302 23.2842 69.3261 23.7223C70.2221 24.1603 71.1778 24.3793 72.1932 24.3793C73.2882 24.3793 74.2738 24.1852 75.1498 23.7969C76.0258 23.4087 76.7724 22.8761 77.3897 22.1992C78.0069 21.5222 78.4847 20.7258 78.8232 19.81C79.1616 18.8941 79.3309 17.9185 79.3309 16.8832C79.3309 15.8479 79.1616 14.8773 78.8232 13.9714C78.4847 13.0655 78.0019 12.2741 77.3747 11.5971C76.7476 10.9202 76.0009 10.3926 75.1349 10.0143C74.2688 9.63601 73.3081 9.44687 72.2529 9.44687C71.0782 9.44687 70.0479 9.69076 69.1619 10.1786C68.2759 10.6663 67.6039 11.2885 67.146 12.0451H67.0564V9.83511H64.3089V31.1586H67.1161ZM71.7153 22.02C70.9986 22.02 70.3465 21.8806 69.7592 21.6019C69.1718 21.3231 68.6691 20.9498 68.251 20.4819C67.8329 20.014 67.5094 19.4715 67.2804 18.8543C67.0514 18.2371 66.937 17.59 66.937 16.9131C66.937 16.2361 67.0514 15.5891 67.2804 14.9719C67.5094 14.3547 67.8329 13.8071 68.251 13.3293C68.6691 12.8515 69.1718 12.4732 69.7592 12.1944C70.3465 11.9157 70.9986 11.7763 71.7153 11.7763C72.4918 11.7763 73.1737 11.9157 73.7611 12.1944C74.3484 12.4732 74.8412 12.8515 75.2394 13.3293C75.6376 13.8071 75.9362 14.3547 76.1353 14.9719C76.3344 15.5891 76.434 16.2262 76.434 16.8832C76.434 17.5402 76.3344 18.1774 76.1353 18.7946C75.9362 19.4118 75.6376 19.9593 75.2394 20.4371C74.8412 20.915 74.3484 21.2982 73.7611 21.5869C73.1737 21.8756 72.4918 22.02 71.7153 22.02ZM88.1609 23.991L93.8352 9.83511H90.8487L86.6677 20.9747H86.6079L82.4567 9.83511H79.3508L85.1147 23.991H88.1609ZM96.2443 6.52011C96.762 6.52011 97.205 6.35088 97.5733 6.01241C97.9416 5.67394 98.1258 5.24588 98.1258 4.72822C98.1258 4.21056 97.9416 3.77752 97.5733 3.4291C97.205 3.08068 96.762 2.90647 96.2443 2.90647C95.7267 2.90647 95.2887 3.08068 94.9303 3.4291C94.5719 3.77752 94.3927 4.21056 94.3927 4.72822C94.3927 5.22597 94.5719 5.64905 94.9303 5.99748C95.2887 6.3459 95.7267 6.52011 96.2443 6.52011ZM97.648 23.991V9.83511H94.8407V23.991H97.648ZM103.671 23.991V1.41322H100.863V23.991H103.671ZM109.693 23.991V1.41322H106.886V23.991H109.693ZM116.941 24.3494C118.016 24.3494 118.947 24.1404 119.733 23.7223C120.519 23.3042 121.172 22.7168 121.689 21.9602H121.779C121.779 22.6372 121.858 23.3141 122.018 23.991H124.556C124.477 23.6526 124.422 23.2195 124.392 22.6919C124.362 22.1643 124.347 21.6616 124.347 21.1838V15.0017C124.347 14.2252 124.228 13.4985 123.989 12.8216C123.75 12.1447 123.391 11.5573 122.914 11.0596C122.436 10.5618 121.824 10.1686 121.077 9.87991C120.33 9.59121 119.449 9.44687 118.434 9.44687C117.279 9.44687 116.199 9.63601 115.194 10.0143C114.188 10.3926 113.337 10.9102 112.64 11.5673L114.133 13.3592C114.611 12.8813 115.204 12.4881 115.91 12.1795C116.617 11.8709 117.369 11.7166 118.165 11.7166C119.22 11.7166 120.067 11.9704 120.704 12.4781C121.341 12.9859 121.659 13.7673 121.659 14.8225V15.2108C120.465 15.2108 119.28 15.2606 118.105 15.3601C116.931 15.4597 115.875 15.6737 114.94 16.0022C114.004 16.3307 113.247 16.8086 112.67 17.4357C112.093 18.0629 111.804 18.914 111.804 19.9892C111.804 20.8055 111.968 21.4924 112.297 22.0498C112.625 22.6073 113.038 23.0553 113.536 23.3937C114.034 23.7322 114.586 23.9761 115.194 24.1254C115.801 24.2748 116.383 24.3494 116.941 24.3494ZM117.568 22.1394C117.209 22.1394 116.861 22.1046 116.523 22.0349C116.184 21.9652 115.875 21.8408 115.597 21.6616C115.318 21.4824 115.094 21.2534 114.925 20.9747C114.756 20.696 114.671 20.3475 114.671 19.9294C114.671 19.3321 114.87 18.8543 115.268 18.4959C115.666 18.1375 116.169 17.8688 116.776 17.6896C117.384 17.5104 118.061 17.3909 118.807 17.3312C119.554 17.2715 120.276 17.2416 120.972 17.2416H121.659V17.9882C121.659 19.1828 121.306 20.1733 120.599 20.9598C119.892 21.7462 118.882 22.1394 117.568 22.1394ZM131.355 24.3793C132.072 24.3793 132.769 24.2996 133.446 24.1404C134.123 23.9811 134.725 23.7173 135.253 23.349C135.78 22.9806 136.203 22.5078 136.522 21.9304C136.841 21.353 137 20.6462 137 19.81C137 19.1928 136.88 18.6552 136.642 18.1973C136.403 17.7393 136.069 17.3461 135.641 17.0176C135.213 16.6891 134.71 16.4153 134.133 16.1963C133.555 15.9773 132.928 15.7882 132.251 15.6289C131.176 15.39 130.37 15.1262 129.832 14.8375C129.295 14.5488 129.026 14.1058 129.026 13.5085C129.026 13.17 129.101 12.8863 129.25 12.6573C129.399 12.4284 129.598 12.2392 129.847 12.0899C130.096 11.9406 130.38 11.8311 130.698 11.7614C131.017 11.6917 131.336 11.6569 131.654 11.6569C132.371 11.6569 133.018 11.8211 133.595 12.1496C134.173 12.4781 134.621 12.9012 134.939 13.4189L136.88 11.7763C136.363 11.0197 135.631 10.4424 134.685 10.0442C133.74 9.64597 132.759 9.44687 131.744 9.44687C131.067 9.44687 130.41 9.53148 129.773 9.70072C129.135 9.86995 128.568 10.1288 128.07 10.4772C127.573 10.8256 127.169 11.2736 126.861 11.8211C126.552 12.3686 126.398 13.0207 126.398 13.7773C126.398 14.4343 126.522 14.9868 126.771 15.4348C127.02 15.8827 127.344 16.2561 127.742 16.5547C128.14 16.8533 128.583 17.0873 129.071 17.2565C129.559 17.4258 130.041 17.5701 130.519 17.6896C131.734 17.9683 132.655 18.267 133.282 18.5855C133.909 18.9041 134.222 19.3919 134.222 20.0489C134.222 20.4471 134.143 20.7756 133.984 21.0344C133.824 21.2933 133.61 21.5023 133.341 21.6616C133.073 21.8209 132.774 21.9353 132.446 22.005C132.117 22.0747 131.774 22.1096 131.415 22.1096C130.619 22.1096 129.887 21.9204 129.22 21.5421C128.553 21.1638 128.03 20.696 127.652 20.1385L125.651 21.8408C126.328 22.6969 127.179 23.334 128.205 23.7521C129.23 24.1702 130.28 24.3793 131.355 24.3793Z" fill="white"/>
</svg>
