<svg width="9" height="9" viewBox="0 0 9 9" fill="none" xmlns="http://www.w3.org/2000/svg">
<path d="M5.52344 4.5L7.9375 2.10938L8.42969 1.61719C8.5 1.54688 8.5 1.42969 8.42969 1.33594L7.91406 0.820312C7.82031 0.75 7.70312 0.75 7.63281 0.820312L4.75 3.72656L1.84375 0.820312C1.77344 0.75 1.65625 0.75 1.5625 0.820312L1.04688 1.33594C0.976562 1.42969 0.976562 1.54688 1.04688 1.61719L3.95312 4.5L1.04688 7.40625C0.976562 7.47656 0.976562 7.59375 1.04688 7.6875L1.5625 8.20312C1.65625 8.27344 1.77344 8.27344 1.84375 8.20312L4.75 5.29688L7.14062 7.71094L7.63281 8.20312C7.70312 8.27344 7.82031 8.27344 7.91406 8.20312L8.42969 7.6875C8.5 7.59375 8.5 7.47656 8.42969 7.40625L5.52344 4.5Z" fill="black"/>
</svg>
