<svg width="14" height="15" viewBox="0 0 14 15" fill="none" xmlns="http://www.w3.org/2000/svg">
<path d="M13.7812 7.75H1.75V2.44531C1.75 2.00781 2.10547 1.625 2.54297 1.625C2.76172 1.625 2.95312 1.73438 3.08984 1.87109L3.80078 2.55469C3.60938 2.85547 3.5 3.21094 3.5 3.59375C3.5 4.16797 3.71875 4.66016 4.10156 5.01562L3.77344 5.31641C3.74609 5.37109 3.71875 5.42578 3.71875 5.48047C3.71875 5.53516 3.74609 5.58984 3.77344 5.64453L4.07422 5.94531C4.12891 6 4.18359 6 4.23828 6C4.29297 6 4.34766 6 4.40234 5.94531L7.79297 2.55469C7.84766 2.5 7.875 2.44531 7.875 2.39062C7.875 2.33594 7.84766 2.28125 7.79297 2.22656L7.49219 1.92578C7.4375 1.89844 7.38281 1.87109 7.32812 1.87109C7.27344 1.87109 7.21875 1.89844 7.19141 1.92578L6.86328 2.25391C6.50781 1.87109 6.01562 1.625 5.46875 1.625C5.05859 1.65234 4.70312 1.76172 4.40234 1.95312L3.71875 1.24219C3.41797 0.941406 3.00781 0.777344 2.54297 0.777344C1.61328 0.777344 0.875 1.51562 0.875 2.44531V7.75H0.21875C0.0820312 7.75 0 7.85938 0 7.96875V8.40625C0 8.54297 0.0820312 8.625 0.21875 8.625H0.875V11.25C0.875 12.3984 1.58594 13.3555 2.625 13.7383V14.5312C2.625 14.668 2.70703 14.75 2.84375 14.75H3.28125C3.39062 14.75 3.5 14.668 3.5 14.5312V13.875H10.5V14.5312C10.5 14.668 10.582 14.75 10.7188 14.75H11.1562C11.2656 14.75 11.375 14.668 11.375 14.5312V13.7383C12.3867 13.3555 13.125 12.3984 13.125 11.25V8.625H13.7812C13.8906 8.625 14 8.54297 14 8.40625V7.96875C14 7.85938 13.8906 7.75 13.7812 7.75ZM6.23438 2.85547L4.70312 4.38672C4.51172 4.19531 4.375 3.92188 4.375 3.59375C4.375 2.99219 4.83984 2.5 5.46875 2.5C5.76953 2.52734 6.04297 2.66406 6.23438 2.85547ZM12.25 11.25C12.2227 12.2344 11.457 13 10.5 13H3.5C2.51562 13 1.75 12.2344 1.75 11.25V8.625H12.25V11.25Z" fill="#777777"/>
</svg>
