<svg width="18" height="16" viewBox="0 0 18 16" fill="none" xmlns="http://www.w3.org/2000/svg">
<path d="M15.1634 2.15592C13.3698 0.640624 10.6175 0.857096 8.91667 2.61979C7.1849 0.857096 4.43262 0.640624 2.639 2.15592C0.319661 4.10417 0.659831 7.28939 2.32975 8.99023L7.74154 14.5257C8.05078 14.835 8.4528 15.0205 8.91667 15.0205C9.34961 15.0205 9.75163 14.835 10.0609 14.5257L15.5036 8.99023C17.1426 7.28939 17.4827 4.10417 15.1634 2.15592ZM14.4212 7.9388L9.00944 13.4743C8.94759 13.5361 8.88574 13.5361 8.79297 13.4743L3.38118 7.9388C2.23698 6.7946 2.02051 4.62988 3.59766 3.30013C4.80371 2.27962 6.65918 2.43424 7.83431 3.60937L8.91667 4.72266L9.99902 3.60937C11.1432 2.43424 12.9987 2.27962 14.2048 3.26921C15.7819 4.62988 15.5654 6.7946 14.4212 7.9388Z" fill="black"/>
</svg>
