<svg width="18" height="11" viewBox="0 0 18 11" fill="none" xmlns="http://www.w3.org/2000/svg">
<path d="M3.9375 7.5C5.14062 7.5 6.125 6.54297 6.125 5.3125C6.125 4.10938 5.14062 3.125 3.9375 3.125C2.70703 3.125 1.75 4.10938 1.75 5.3125C1.75 6.54297 2.70703 7.5 3.9375 7.5ZM3.9375 4C4.64844 4 5.25 4.60156 5.25 5.3125C5.25 6.05078 4.64844 6.625 3.9375 6.625C3.19922 6.625 2.625 6.05078 2.625 5.3125C2.625 4.60156 3.19922 4 3.9375 4ZM14.4375 3.125H7.4375C7.19141 3.125 7 3.34375 7 3.5625V8.375H0.875V0.71875C0.875 0.609375 0.765625 0.5 0.65625 0.5H0.21875C0.0820312 0.5 0 0.609375 0 0.71875V10.7812C0 10.918 0.0820312 11 0.21875 11H0.65625C0.765625 11 0.875 10.918 0.875 10.7812V9.25H16.625V10.7812C16.625 10.918 16.707 11 16.8438 11H17.2812C17.3906 11 17.5 10.918 17.5 10.7812V6.1875C17.5 4.51953 16.1055 3.125 14.4375 3.125ZM16.625 8.375H7.875V4H14.4375C15.6406 4 16.625 4.98438 16.625 6.1875V8.375Z" fill="#777777"/>
</svg>
