<svg width="15" height="15" viewBox="0 0 15 15" fill="none" xmlns="http://www.w3.org/2000/svg">
<path d="M5.41406 4.60547C5.71484 4.19531 5.90625 3.70312 5.90625 3.15625C5.90625 1.84375 4.8125 0.75 3.5 0.75C2.16016 0.75 1.09375 1.84375 1.09375 3.15625C1.09375 3.70312 1.25781 4.19531 1.55859 4.60547C0.765625 4.87891 0.21875 5.61719 0.21875 6.49219V9.36328C0.21875 10.0469 0.683594 10.6211 1.3125 10.7852V13.3008C1.3125 14.1211 1.94141 14.75 2.76172 14.75H4.23828C5.03125 14.75 5.6875 14.1211 5.6875 13.3008V10.7852C6.28906 10.6211 6.78125 10.0469 6.78125 9.36328V6.49219C6.78125 5.61719 6.20703 4.87891 5.41406 4.60547ZM3.5 1.625C4.32031 1.625 5.03125 2.33594 5.03125 3.15625C5.03125 4.00391 4.32031 4.6875 3.5 4.6875C2.65234 4.6875 1.96875 4.00391 1.96875 3.15625C1.96875 2.33594 2.65234 1.625 3.5 1.625ZM5.90625 9.36328C5.90625 9.69141 5.63281 9.9375 5.33203 9.9375H4.8125V13.3008C4.8125 13.6289 4.53906 13.875 4.23828 13.875H2.76172C2.43359 13.875 2.1875 13.6289 2.1875 13.3008V9.9375H1.66797C1.33984 9.9375 1.09375 9.69141 1.09375 9.36328V6.49219C1.09375 5.86328 1.58594 5.34375 2.24219 5.34375H2.48828C3.11719 5.64453 3.82812 5.64453 4.48438 5.34375H4.75781C5.38672 5.34375 5.90625 5.86328 5.90625 6.49219V9.36328ZM13.9453 10.0742L12.8516 5.58984C12.7969 5.28906 12.6328 5.04297 12.3867 4.87891C12.3594 4.82422 12.3047 4.79688 12.2773 4.76953C12.6602 4.35938 12.9062 3.78516 12.9062 3.15625C12.9062 1.84375 11.8125 0.75 10.5 0.75C9.16016 0.75 8.09375 1.84375 8.09375 3.15625C8.09375 3.78516 8.3125 4.35938 8.69531 4.76953C8.66797 4.79688 8.61328 4.82422 8.58594 4.87891C8.33984 5.04297 8.17578 5.28906 8.12109 5.58984L7.02734 10.0742C6.83594 10.8945 7.4375 11.6875 8.3125 11.6875H8.66797V13.3008C8.66797 14.1211 9.29688 14.75 10.1172 14.75H10.8828C11.6758 14.75 12.332 14.1211 12.332 13.3008V11.6875H12.6602C13.5352 11.6875 14.1367 10.8945 13.9453 10.0742ZM10.5 1.625C11.3203 1.625 12.0312 2.33594 12.0312 3.15625C12.0312 4.00391 11.3203 4.6875 10.5 4.6875C9.65234 4.6875 8.96875 4.00391 8.96875 3.15625C8.96875 2.33594 9.65234 1.625 10.5 1.625ZM12.6875 10.8125H11.457V13.3008C11.457 13.6289 11.1836 13.875 10.8828 13.875H10.1172C9.78906 13.875 9.54297 13.6289 9.54297 13.3008V10.8125H8.3125C8.01172 10.8125 7.82031 10.5664 7.875 10.293L8.96875 5.78125C9.02344 5.58984 9.1875 5.45312 9.40625 5.45312H9.73438C9.98047 5.53516 10.2266 5.5625 10.4727 5.5625C10.7461 5.5625 10.9922 5.53516 11.2383 5.45312H11.5938C11.7852 5.45312 11.9492 5.58984 12.0039 5.78125L13.0977 10.293C13.1523 10.5664 12.9609 10.8125 12.6875 10.8125Z" fill="#777777"/>
</svg>
